<svg width="986" height="2058" x="0" y="0">
                                    <g transform="translate(0,2058) scale(1,-1)"><svg><line x1="278" y1="0" x2="278" y2="336" stroke="rgb(0,0,0)" stroke-width="4" stroke-opacity="0.6" shape-rendering="geometricPrecision"></line><line x1="281" y1="0" x2="281" y2="336" stroke="rgb(255,255,255)" stroke-width="4" stroke-opacity="0.6" shape-rendering="geometricPrecision"></line><line x1="278" y1="599" x2="278" y2="890" stroke="rgb(0,0,0)" stroke-width="4" stroke-opacity="0.6" shape-rendering="geometricPrecision"></line><line x1="281" y1="599" x2="281" y2="890" stroke="rgb(255,255,255)" stroke-width="4" stroke-opacity="0.6" shape-rendering="geometricPrecision"></line><line x1="278" y1="1154" x2="278" y2="1445" stroke="rgb(0,0,0)" stroke-width="4" stroke-opacity="0.6" shape-rendering="geometricPrecision"></line><line x1="281" y1="1154" x2="281" y2="1445" stroke="rgb(255,255,255)" stroke-width="4" stroke-opacity="0.6" shape-rendering="geometricPrecision"></line><line x1="278" y1="1708" x2="278" y2="2058" stroke="rgb(0,0,0)" stroke-width="4" stroke-opacity="0.6" shape-rendering="geometricPrecision"></line><line x1="281" y1="1708" x2="281" y2="2058" stroke="rgb(255,255,255)" stroke-width="4" stroke-opacity="0.6" shape-rendering="geometricPrecision"></line>ddd<line x1="708" y1="0" x2="708" y2="336" stroke="rgb(0,0,0)" stroke-width="4" stroke-opacity="0.6" shape-rendering="geometricPrecision"></line><line x1="705" y1="0" x2="705" y2="336" stroke="rgb(255,255,255)" stroke-width="4" stroke-opacity="0.6" shape-rendering="geometricPrecision"></line><line x1="708" y1="599" x2="708" y2="890" stroke="rgb(0,0,0)" stroke-width="4" stroke-opacity="0.6" shape-rendering="geometricPrecision"></line><line x1="705" y1="599" x2="705" y2="890" stroke="rgb(255,255,255)" stroke-width="4" stroke-opacity="0.6" shape-rendering="geometricPrecision"></line><line x1="708" y1="1154" x2="708" y2="1445" stroke="rgb(0,0,0)" stroke-width="4" stroke-opacity="0.6" shape-rendering="geometricPrecision"></line><line x1="705" y1="1154" x2="705" y2="1445" stroke="rgb(255,255,255)" stroke-width="4" stroke-opacity="0.6" shape-rendering="geometricPrecision"></line><line x1="708" y1="1708" x2="708" y2="2058" stroke="rgb(0,0,0)" stroke-width="4" stroke-opacity="0.6" shape-rendering="geometricPrecision"></line><line x1="705" y1="1708" x2="705" y2="2058" stroke="rgb(255,255,255)" stroke-width="4" stroke-opacity="0.6" shape-rendering="geometricPrecision"></line> </svg></g></svg></g></g></g></svg></g></svg><svg id="gwt-uid-785Okvir" x="30" y="32"><g transform="translate(0,0)"><rect stroke="black" stroke-width="5" stroke-opacity="0.5" opacity="0.8" fill="none" x="0" y="0" width="988" height="2058"></rect></g></svg><svg id="gwt-uid-785Dodatki"><g><g transform="translate(0,32)" id="gwt-uid-785dodatkiOstali"></g><g transform="translate(32,32)" id="gwt-uid-785KriloDodatki"><g transform="translate(936,1747) rotate(0,50,85.5)"><image x="0" y="0" height="171" width="100" xlink:href="https://doordesigner.inotherm-tuer.de/konfigurator/images//Zubehor/panti/RTB_RAL_9007.png"></image></g><g transform="translate(936,108) rotate(0,50,85.5)"><image x="0" y="0" height="171" width="100" xlink:href="https://doordesigner.inotherm-tuer.de/konfigurator/images//Zubehor/panti/RTB_RAL_9007.png"></image></g><g transform="translate(936,927.5) rotate(0,50,85.5)"><image x="0" y="0" height="171" width="100" xlink:href="https://doordesigner.inotherm-tuer.de/konfigurator/images//Zubehor/panti/RTB_RAL_9007.png"></image></g><g transform="translate(48.3,930)  rotate(0,24,125)"><image x="0" y="0" height="250" width="133" preserveAspectRatio="none" xlink:href="https://doordesigner.inotherm-tuer.de/konfigurator/images//Zubehor/Griffe-Drucker/Turgarnitur/GA_190_SPN3.png"></image></g></g></g></svg></g></g><rect x="0" y="0" height="2100" width="1050" fill="url(#gwt-uid-785gwt-uid-785GRADIENT_LIGHT)"></rect></svg><defs id="gwt-uid-785defs"><mask id="ground_mask"><rect width="100%" height="100%" fill="white" x="0" y="2156"></rect><polygon fill="white" points="1836.7301414581066,2158 1866.7301414581066,2128 2916.7301414581066,2128 2946.7301414581066,2158"></polygon></mask><clipPath id="gwt-uid-785SidetrueClipPath"><rect x="0" y="0" width="0" height="2100"></rect></clipPath><mask id="gwt-uid-785SidetrueMaskClipPath"><rect fill="white" x="0" y="0" width="0" height="2100"></rect></mask><clipPath id="gwt-uid-785SidefalseClipPath"><rect x="0" y="0" width="0" height="2100"></rect></clipPath><mask id="gwt-uid-785SidefalseMaskClipPath"><rect fill="white" x="0" y="0" width="0" height="2100"></rect></mask><clipPath id="gwt-uid-785TopSideClipPath"><rect x="0" y="0" width="1050" height="0"></rect></clipPath><linearGradient x1="0" y1="0" x2="0" y2="2100" id="gwt-uid-785GRADIENT_DARK"><stop offset="0%" stop-color="rgb(0,0,0)" stop-opacity="0.4"></stop><stop offset="90%" stop-color="rgb(0,0,0)" stop-opacity="0.2"></stop></linearGradient><pattern id="gwt-uid-785OKVIR_HORIZONTAL" x="0" y="0" height="100" width="100" patternUnits="userSpaceOnUse" patternTransform="rotate(90) "><rect fill="rgb(135,133,129)" x="0" y="0" width="100" height="100"></rect></pattern><pattern id="gwt-uid-785OKVIR_VERTICAL" x="0" y="0" height="100" width="100" patternUnits="userSpaceOnUse"><rect fill="rgb(135,133,129)" x="0" y="0" width="100" height="100"></rect></pattern><pattern id="gwt-uid-785OKVIR_KRILA_HORIZONTAL" x="0" y="0" height="100" width="100" patternUnits="userSpaceOnUse" patternTransform="rotate(90) "><rect fill="rgb(135,133,129)" x="0" y="0" width="100" height="100"></rect></pattern><pattern id="gwt-uid-785OKVIR_KRILA_VERTICAL" x="0" y="0" height="100" width="100" patternUnits="userSpaceOnUse"><rect fill="rgb(135,133,129)" x="0" y="0" width="100" height="100"></rect></pattern><pattern id="gwt-uid-785NOTRANJI_PANEL_HORIZONTAL" x="0" y="0" height="100" width="100" patternUnits="userSpaceOnUse" patternTransform="rotate(90) "><rect fill="rgb(135,133,129)" x="0" y="0" width="100" height="100"></rect></pattern><pattern id="gwt-uid-785NOTRANJI_PANEL" x="0" y="0" height="100" width="100" patternUnits="userSpaceOnUse"><rect fill="rgb(135,133,129)" x="0" y="0" width="100" height="100"></rect></pattern><clipPath id="gwt-uid-785VrataClipPath"><rect x="0" y="0" width="986" height="2058"></rect></clipPath><pattern id="gwt-uid-785DYNAMIC410061" x="0" y="0" height="100" width="100" patternUnits="userSpaceOnUse"><rect fill="rgb(135,133,129)" x="0" y="0" width="100" height="100"></rect></pattern><linearGradient x1="0" y1="0" x2="0" y2="2100" id="gwt-uid-785gwt-uid-785GRADIENT_LIGHT"><stop offset="0%" stop-color="rgb(255,255,255)" stop-opacity="0.15"></stop><stop offset="85%" stop-color="rgb(255,255,255)" stop-opacity="0.0"></stop></linearGradient><filter id="gwt-uid-785grayscale"><feColorMatrix type="saturate" values="0.10"></feColorMatrix></filter></defs></svg>